<svg width="1361" height="293" viewBox="0 0 1361 293" fill="none" xmlns="http://www.w3.org/2000/svg">
<path fill-rule="evenodd" clip-rule="evenodd" d="M671.861 2.56659C750.12 -4.25807 836.433 4.7237 905.198 16.9402C972.872 28.9628 992.675 54.6242 1051.65 70.0375C1143.33 93.9986 1300.34 98.5826 1345.84 132.105C1389.83 164.519 1344.96 205.164 1274.12 233.957C1204.76 262.149 1082.71 273.917 970.306 284.739C874.048 294.007 774.499 291.664 673.776 291.76C574.97 291.854 475.144 295.713 383.723 285.299C285.622 274.124 146.816 261.425 137.037 230.619C125.495 194.265 1.67965 171.302 0.862419 134.727C0.0386876 97.8617 70.9359 81.6239 132.982 49.1458C194.765 16.8048 381.858 62.4854 502.969 52.0169C580.326 45.3304 594.556 9.30799 671.861 2.56659Z" fill="#c5c6c7"/>
</svg>
